#tb 0: 1/25
0,          0,          0,        1,   152064, 0xd816ae9a
0,          1,          1,        1,   152064, 0x970e9c33
0,          2,          2,        1,   152064, 0xbdd14635
0,          3,          3,        1,   152064, 0x103f667c
0,          4,          4,        1,   152064, 0x752b1ebb
0,          5,          5,        1,   152064, 0x1e9d59d4
0,          6,          6,        1,   152064, 0x4b9d89b6
0,          7,          7,        1,   152064, 0x16c1362e
0,          8,          8,        1,   152064, 0x3ea9a977
0,          9,          9,        1,   152064, 0x24e3c7fe
0,         10,         10,        1,   152064, 0xe64132fa
0,         11,         11,        1,   152064, 0xb2074e31
0,         12,         12,        1,   152064, 0x87e61824
0,         13,         13,        1,   152064, 0xf3e7f2d3
0,         14,         14,        1,   152064, 0x36856b98
0,         15,         15,        1,   152064, 0xe2be97dd
0,         16,         16,        1,   152064, 0xb99a3a3d
0,         17,         17,        1,   152064, 0xf4d04afa
0,         18,         18,        1,   152064, 0x20a92205
0,         19,         19,        1,   152064, 0x5f6272ca
0,         20,         20,        1,   152064, 0xe1f45d11
0,         21,         21,        1,   152064, 0x7ff113ee
0,         22,         22,        1,   152064, 0x47e8befb
0,         23,         23,        1,   152064, 0x562c03c6
0,         24,         24,        1,   152064, 0x197a311c
0,         25,         25,        1,   152064, 0x30017402
0,         26,         26,        1,   152064, 0x27e6384e
0,         27,         27,        1,   152064, 0x456f6152
0,         28,         28,        1,   152064, 0x368810d1
0,         29,         29,        1,   152064, 0x7be61b5f
0,         30,         30,        1,   152064, 0x5fa9aaef
0,         31,         31,        1,   152064, 0x957de9da
0,         32,         32,        1,   152064, 0x47c6bc4f
0,         33,         33,        1,   152064, 0xb2247b98
0,         34,         34,        1,   152064, 0xd045a416
0,         35,         35,        1,   152064, 0xa0b16da9
0,         36,         36,        1,   152064, 0xe9bd1d8f
0,         37,         37,        1,   152064, 0xe7881f4d
0,         38,         38,        1,   152064, 0x85e2d4a9
0,         39,         39,        1,   152064, 0x00a967cd
0,         40,         40,        1,   152064, 0x02507278
0,         41,         41,        1,   152064, 0xc511370e
0,         42,         42,        1,   152064, 0x7963cf0b
0,         43,         43,        1,   152064, 0xf99ef0fd
0,         44,         44,        1,   152064, 0x00813540
0,         45,         45,        1,   152064, 0xa9aeaf2b
0,         46,         46,        1,   152064, 0x559eb849
0,         47,         47,        1,   152064, 0x315605c1
0,         48,         48,        1,   152064, 0xe2594b7c
0,         49,         49,        1,   152064, 0x844ef85c
0,         50,         50,        1,   152064, 0x5012c785
0,         51,         51,        1,   152064, 0x239f600d
0,         52,         52,        1,   152064, 0x80a2a156
0,         53,         53,        1,   152064, 0xec239895
0,         54,         54,        1,   152064, 0xd7387dbe
0,         55,         55,        1,   152064, 0xe8aa6125
0,         56,         56,        1,   152064, 0x4742d997
0,         57,         57,        1,   152064, 0x88515422
0,         58,         58,        1,   152064, 0x3dd02167
0,         59,         59,        1,   152064, 0xe36855d1
0,         60,         60,        1,   152064, 0x202edeb9
0,         61,         61,        1,   152064, 0xf5a5eed3
0,         62,         62,        1,   152064, 0xd3bc6e68
0,         63,         63,        1,   152064, 0xba902a0a
0,         64,         64,        1,   152064, 0x4db4f721
0,         65,         65,        1,   152064, 0x293c90bd
0,         66,         66,        1,   152064, 0xa651a49f
0,         67,         67,        1,   152064, 0x5c1a2a7d
0,         68,         68,        1,   152064, 0xa67986de
0,         69,         69,        1,   152064, 0xe5fe7d26
0,         70,         70,        1,   152064, 0xde191b31
0,         71,         71,        1,   152064, 0x5e303cb1
0,         72,         72,        1,   152064, 0x657f6d5d
0,         73,         73,        1,   152064, 0x5c44adaa
0,         74,         74,        1,   152064, 0x8c3c0422
0,         75,         75,        1,   152064, 0x161cb54f
0,         76,         76,        1,   152064, 0xc96355c8
0,         77,         77,        1,   152064, 0xeb02fdec
0,         78,         78,        1,   152064, 0xd18a7989
0,         79,         79,        1,   152064, 0xc7d671bf
0,         80,         80,        1,   152064, 0x2e1637cc
0,         81,         81,        1,   152064, 0xd0d5958a
0,         82,         82,        1,   152064, 0x2f9dd79c
0,         83,         83,        1,   152064, 0xa96b4dd1
0,         84,         84,        1,   152064, 0x7bfc2eb9
0,         85,         85,        1,   152064, 0xc3c91809
0,         86,         86,        1,   152064, 0x9e167aa3
0,         87,         87,        1,   152064, 0xb47e9f6e
0,         88,         88,        1,   152064, 0x70e6c184
0,         89,         89,        1,   152064, 0x0d92e4e7
0,         90,         90,        1,   152064, 0xf4891b11
0,         91,         91,        1,   152064, 0x93f912c7
0,         92,         92,        1,   152064, 0xa3bc52c5
0,         93,         93,        1,   152064, 0xc6fca440
0,         94,         94,        1,   152064, 0x045aa5d4
0,         95,         95,        1,   152064, 0x15ba1dd0
0,         96,         96,        1,   152064, 0x59f45a8b
0,         97,         97,        1,   152064, 0x9dc20832
0,         98,         98,        1,   152064, 0x36316eb4
0,         99,         99,        1,   152064, 0x28ba54f4
